# Blender 4.1.1
# www.blender.org
mtllib untitled4.mtl
o Circle
v 0.000000 9.941620 -13.634615
v -2.659981 9.941620 -13.372629
v -5.217741 9.941620 -12.596742
v -7.574986 9.941620 -11.336768
v -9.641129 9.941620 -9.641129
v -11.336768 9.941620 -7.574986
v -12.596742 9.941620 -5.217741
v -13.372629 9.941620 -2.659981
v -13.634615 9.941620 0.000000
v -13.372629 9.941620 2.659981
v -12.596742 9.941620 5.217741
v -11.336768 9.941620 7.574986
v -9.641129 9.941620 9.641129
v -7.574986 9.941620 11.336768
v -5.217741 9.941620 12.596742
v -2.659981 9.941620 13.372629
v 0.000000 9.941620 13.634615
v 2.659981 9.941620 13.372629
v 5.217741 9.941620 12.596742
v 7.574986 9.941620 11.336768
v 9.641129 9.941620 9.641129
v 11.336768 9.941620 7.574986
v 12.596742 9.941620 5.217741
v 13.372629 9.941620 2.659981
v 13.634615 9.941620 0.000000
v 13.372629 9.941620 -2.659981
v 12.596742 9.941620 -5.217741
v 11.336768 9.941620 -7.574986
v 9.641129 9.941620 -9.641129
v 7.574986 9.941620 -11.336768
v 5.217741 9.941620 -12.596742
v 2.659981 9.941620 -13.372629
v 0.000000 0.114272 -13.634615
v -2.659981 0.114272 -13.372629
v -5.217741 0.114272 -12.596742
v -7.574986 0.114272 -11.336768
v -9.641129 0.114272 -9.641129
v -11.336768 0.114272 -7.574986
v -12.596742 0.114272 -5.217741
v -13.372629 0.114272 -2.659981
v -13.634615 0.114272 0.000000
v -13.372629 0.114272 2.659981
v -12.596742 0.114272 5.217741
v -11.336768 0.114272 7.574986
v -9.641129 0.114272 9.641129
v -7.574986 0.114272 11.336768
v -5.217741 0.114272 12.596742
v -2.659981 0.114272 13.372629
v 0.000000 0.114272 13.634615
v 2.659981 0.114272 13.372629
v 5.217741 0.114272 12.596742
v 7.574986 0.114272 11.336768
v 9.641129 0.114272 9.641129
v 11.336768 0.114272 7.574986
v 12.596742 0.114272 5.217741
v 13.372629 0.114272 2.659981
v 13.634615 0.114272 0.000000
v 13.372629 0.114272 -2.659981
v 12.596742 0.114272 -5.217741
v 11.336768 0.114272 -7.574986
v 9.641129 0.114272 -9.641129
v 7.574986 0.114272 -11.336768
v 5.217741 0.114272 -12.596742
v 2.659981 0.114272 -13.372629
vn 0.6344 -0.0000 0.7730
vn -0.9569 -0.0000 -0.2903
vn 0.7730 -0.0000 0.6344
vn -0.9952 -0.0000 -0.0980
vn 0.8819 -0.0000 0.4714
vn -0.9952 -0.0000 0.0980
vn 0.9569 -0.0000 0.2903
vn -0.9569 -0.0000 0.2903
vn 0.9952 -0.0000 0.0980
vn -0.8819 -0.0000 0.4714
vn 0.9952 -0.0000 -0.0980
vn -0.7730 -0.0000 0.6344
vn 0.9569 -0.0000 -0.2903
vn -0.6344 -0.0000 0.7730
vn 0.8819 -0.0000 -0.4714
vn -0.4714 -0.0000 0.8819
vn -0.0980 -0.0000 -0.9952
vn 0.7730 -0.0000 -0.6344
vn -0.2903 -0.0000 0.9569
vn -0.2903 -0.0000 -0.9569
vn 0.6344 -0.0000 -0.7730
vn -0.0980 -0.0000 0.9952
vn -0.4714 -0.0000 -0.8819
vn 0.4714 -0.0000 -0.8819
vn 0.0980 -0.0000 0.9952
vn -0.6344 -0.0000 -0.7730
vn 0.2903 -0.0000 -0.9569
vn 0.2903 -0.0000 0.9569
vn -0.7730 -0.0000 -0.6344
vn 0.0980 -0.0000 -0.9952
vn 0.4714 -0.0000 0.8819
vn -0.8819 -0.0000 -0.4714
vt 0.000000 0.000000
s 0
f 21/1/1 20/1/1 52/1/1 53/1/1
f 8/1/2 7/1/2 39/1/2 40/1/2
f 22/1/3 21/1/3 53/1/3 54/1/3
f 9/1/4 8/1/4 40/1/4 41/1/4
f 23/1/5 22/1/5 54/1/5 55/1/5
f 10/1/6 9/1/6 41/1/6 42/1/6
f 24/1/7 23/1/7 55/1/7 56/1/7
f 11/1/8 10/1/8 42/1/8 43/1/8
f 25/1/9 24/1/9 56/1/9 57/1/9
f 12/1/10 11/1/10 43/1/10 44/1/10
f 26/1/11 25/1/11 57/1/11 58/1/11
f 13/1/12 12/1/12 44/1/12 45/1/12
f 27/1/13 26/1/13 58/1/13 59/1/13
f 14/1/14 13/1/14 45/1/14 46/1/14
f 28/1/15 27/1/15 59/1/15 60/1/15
f 15/1/16 14/1/16 46/1/16 47/1/16
f 2/1/17 1/1/17 33/1/17 34/1/17
f 29/1/18 28/1/18 60/1/18 61/1/18
f 16/1/19 15/1/19 47/1/19 48/1/19
f 3/1/20 2/1/20 34/1/20 35/1/20
f 30/1/21 29/1/21 61/1/21 62/1/21
f 17/1/22 16/1/22 48/1/22 49/1/22
f 4/1/23 3/1/23 35/1/23 36/1/23
f 31/1/24 30/1/24 62/1/24 63/1/24
f 18/1/25 17/1/25 49/1/25 50/1/25
f 5/1/26 4/1/26 36/1/26 37/1/26
f 32/1/27 31/1/27 63/1/27 64/1/27
f 19/1/28 18/1/28 50/1/28 51/1/28
f 6/1/29 5/1/29 37/1/29 38/1/29
f 1/1/30 32/1/30 64/1/30 33/1/30
f 20/1/31 19/1/31 51/1/31 52/1/31
f 7/1/32 6/1/32 38/1/32 39/1/32
